<svg xmlns="http://www.w3.org/2000/svg" xmlns:xlink="http://www.w3.org/1999/xlink" viewBox="0 0 431.47 111.9"><defs><style>.cls-1{fill:url(#linear-gradient);}.cls-2{font-size:48.82px;fill:#fff;font-family:SegoeUI-Bold, Segoe UI;font-weight:700;}.cls-3{letter-spacing:-0.01em;}.cls-4{letter-spacing:0em;}</style><linearGradient id="linear-gradient" x1="41.85" y1="280.87" x2="102.48" y2="341.5" gradientUnits="userSpaceOnUse"><stop offset="0.14" stop-color="#e14411"/><stop offset="0.15" stop-color="#e14411"/><stop offset="0.94" stop-color="#e14411"/></linearGradient></defs><g id="OBJECTS"><path class="cls-1" d="M92.29,298.91a7,7,0,1,0-7-7A7,7,0,0,0,92.29,298.91Zm12.51,17.35-1.16-3.8a2.55,2.55,0,0,1-4,.07L93,316.29a2.84,2.84,0,0,1,.11.71,2.59,2.59,0,0,1-2.58,2.59h-.07a5.54,5.54,0,0,1-.6,2.85h.45v15.7a4.23,4.23,0,0,0,2,.5,5,5,0,0,0,.79-.07V321.5h.77v16.84a4.28,4.28,0,0,0,2.64-3.27l.13-.85v-17h.77v12.32l1.59-9.7h1.18v-3.7h.77v3.7h1.19a2.75,2.75,0,0,0,1.58-.5v-3.72h.77v2.94A2.84,2.84,0,0,0,104.8,316.26Zm-26.7-8.88a1.57,1.57,0,1,0,1.57-1.56A1.57,1.57,0,0,0,78.1,307.38ZM54.92,323.26l0,0v14.22a4.3,4.3,0,0,0,1.27-2.39l1.51-9.25v-.57A5.58,5.58,0,0,1,54.92,323.26Zm31.84-.32a3.6,3.6,0,0,0,1.51-4.1L87,314.61l-5.78-5.17a2.57,2.57,0,0,1-1.53.52,2.6,2.6,0,0,1-1.36-.39l-4.09,3.87a2.58,2.58,0,1,1-4.6.87l-7.1-2.52a2.56,2.56,0,0,1-3.86.3l-.76.52L56,318.84a3.62,3.62,0,0,0,1.68,4.21v-7.17h.76v7.49a3.75,3.75,0,0,0,1,.15h1.76v-7.95H62v7.95h1.53l1.25,7.65V315.74h.76v20.07l1.2,7.32a5.53,5.53,0,0,0,1.58,3V319.05h.76v27.73a5.49,5.49,0,0,0,2.78.93v-27.3h.76V347.7a5.43,5.43,0,0,0,2.78-1.05v-27.8h.76V346a5.51,5.51,0,0,0,1.41-2.84l1.37-8.41V312.87h.76v17.21l1.08-6.56h1.7v-8.88h.76v8.88h1.59a3.58,3.58,0,0,0,1.19-.21v-2.92h.76ZM63,310.25a2.51,2.51,0,0,1-.08.62l7.1,2.52a2.56,2.56,0,0,1,2.06-1,2.49,2.49,0,0,1,1.35.4l4.1-3.88a2.55,2.55,0,0,1-.48-1.49,2.58,2.58,0,0,1,5.16,0,2.5,2.5,0,0,1-.37,1.3l4.53,4.06L83.75,304a6.73,6.73,0,0,0-6.44-4.78H67A6.75,6.75,0,0,0,60.51,304L59.32,308a2.56,2.56,0,0,1,3.72,2.3Zm23.72,14.94v1.73l1.34,8.15a4.25,4.25,0,0,0,1.44,2.55V323l-.19.29A5.6,5.6,0,0,1,86.76,325.19Zm2.72-9.35.74,2.41c0,.1,0,.2.07.3l.23,0a1.57,1.57,0,1,0-1-2.73ZM58.9,310.25a1.57,1.57,0,1,0,1.56-1.56A1.57,1.57,0,0,0,58.9,310.25Zm41.18.6a1.56,1.56,0,0,0,3.11.15l-.34-1.13a1.56,1.56,0,0,0-2.77,1Zm-56.61,0a2.5,2.5,0,0,1-.2,1l5.39,3.39a2.56,2.56,0,0,1,3.67-.07l3.36-2.28,2.88-9.45a8.46,8.46,0,0,1,.53-1.32,5.26,5.26,0,0,0-3.12-1H48a5.22,5.22,0,0,0-5,3.7l-1.12,3.68A2.58,2.58,0,0,1,43.47,310.85ZM49,317a1.57,1.57,0,1,0,1.57-1.56A1.57,1.57,0,0,0,49,317Zm3-18.09a7,7,0,1,0-7-7A7,7,0,0,0,52,298.91Zm-9.52,11.94a1.57,1.57,0,0,0-.91-1.41l-.9,2.95a1,1,0,0,0,.24,0A1.57,1.57,0,0,0,42.46,310.85Zm11.59,7.4,1.17-3.82L52.9,316A2.58,2.58,0,1,1,48,317a2.53,2.53,0,0,1,.17-.91l-5.42-3.41a2.51,2.51,0,0,1-1.81.75,2.42,2.42,0,0,1-.54-.06l-.88,2.89a2.78,2.78,0,0,0,.51,2.58v-2.55h.76v3.2a2.78,2.78,0,0,0,1.41.39h1.37v-3.13h.76v3.13h1l1.77,10.79V321.4h.76v13.86a4.25,4.25,0,0,0,2.78,3.14V322.45h.76v16.13a4.21,4.21,0,0,0,.62.05h0a4.32,4.32,0,0,0,2.16-.59V321.8A5.66,5.66,0,0,1,54.05,318.25Zm35.12-3.42a2.5,2.5,0,0,1,1.35-.41,2.6,2.6,0,0,1,2,1l6.68-3.75a2.54,2.54,0,0,1,2.44-3.37,2.38,2.38,0,0,1,.76.13l-1.1-3.62a5.22,5.22,0,0,0-5-3.7h-8a5.26,5.26,0,0,0-3.12,1,8.46,8.46,0,0,1,.53,1.32Zm-17-1.46a1.57,1.57,0,1,0,1.56,1.56A1.56,1.56,0,0,0,72.12,313.37Zm0-16.92A9.09,9.09,0,1,0,63,287.36,9.09,9.09,0,0,0,72.13,296.45Z" transform="translate(-39.35 -239.61)"/></g><g id="TEXTS"><text class="cls-2" x="-39.35" y="-239.61"><tspan x="69.14" y="90.88">SKILLSYNC P</tspan><tspan class="cls-3" x="363.06" y="90.88">R</tspan><tspan class="cls-4" x="394.45" y="90.88">O</tspan></text></g></svg>